<svg width="550" height="70" viewBox="0 0 550 70" fill="none" xmlns="http://www.w3.org/2000/svg">
<path d="M0.760501 69V1.8H47.6085V15.72H16.6005V55.08H48.5685V69H0.760501ZM8.4405 41.448V28.2H43.2885V41.448H8.4405ZM102.092 69L81.2595 38.856L54.5715 1.8H74.4435L94.7955 31.56L121.964 69H102.092ZM54.0915 69L79.7235 32.424L92.8755 40.008L73.0035 69H54.0915ZM96.3315 37.8L83.2755 30.504L102.092 1.8H121.004L96.3315 37.8ZM130.323 69V1.8H177.171V15.72H146.163V55.08H178.131V69H130.323ZM138.003 41.448V28.2H172.851V41.448H138.003ZM192.198 69V1.8H222.438C226.726 1.8 230.598 2.728 234.054 4.584C237.574 6.44 240.326 9 242.31 12.264C244.294 15.464 245.286 19.112 245.286 23.208C245.286 27.432 244.294 31.24 242.31 34.632C240.326 37.96 237.606 40.584 234.15 42.504C230.694 44.424 226.79 45.384 222.438 45.384H207.75V69H192.198ZM229.446 69L212.358 38.664L229.062 36.264L248.07 69H229.446ZM207.75 32.904H220.998C222.662 32.904 224.102 32.552 225.318 31.848C226.598 31.08 227.558 30.024 228.198 28.68C228.902 27.336 229.254 25.8 229.254 24.072C229.254 22.344 228.87 20.84 228.102 19.56C227.334 18.216 226.214 17.192 224.742 16.488C223.334 15.784 221.606 15.432 219.558 15.432H207.75V32.904ZM289.195 69.96C284.139 69.96 279.467 69.128 275.179 67.464C270.955 65.736 267.275 63.336 264.139 60.264C261.003 57.128 258.571 53.448 256.843 49.224C255.179 44.936 254.347 40.232 254.347 35.112C254.347 30.12 255.243 25.512 257.035 21.288C258.827 17.064 261.291 13.416 264.427 10.344C267.627 7.208 271.371 4.776 275.659 3.048C280.011 1.32 284.747 0.455996 289.867 0.455996C293.067 0.455996 296.203 0.871996 299.275 1.704C302.347 2.536 305.195 3.784 307.819 5.44799C310.507 7.048 312.811 8.968 314.731 11.208L304.747 22.632C303.403 21.224 301.963 20.008 300.427 18.984C298.955 17.896 297.323 17.064 295.531 16.488C293.739 15.912 291.819 15.624 289.771 15.624C287.211 15.624 284.779 16.104 282.475 17.064C280.235 17.96 278.251 19.272 276.523 21C274.859 22.664 273.547 24.712 272.587 27.144C271.627 29.576 271.147 32.296 271.147 35.304C271.147 38.248 271.627 40.936 272.587 43.368C273.547 45.736 274.891 47.784 276.619 49.512C278.347 51.24 280.427 52.552 282.859 53.448C285.355 54.344 288.107 54.792 291.115 54.792C293.163 54.792 295.115 54.504 296.971 53.928C298.827 53.352 300.523 52.584 302.059 51.624C303.659 50.6 305.067 49.448 306.283 48.168L314.155 60.648C312.555 62.44 310.411 64.04 307.723 65.448C305.099 66.856 302.155 67.976 298.891 68.808C295.691 69.576 292.459 69.96 289.195 69.96ZM323.979 69V55.272H335.307V15.528H323.979V1.8H363.051V15.528H351.627V55.272H363.051V69H323.979ZM400.845 69.96C396.429 69.96 392.429 69.448 388.845 68.424C385.325 67.336 382.189 65.8 379.437 63.816C376.685 61.768 374.221 59.368 372.045 56.616L381.933 45.384C385.133 49.672 388.333 52.552 391.533 54.024C394.797 55.496 398.157 56.232 401.613 56.232C403.341 56.232 404.909 56.008 406.317 55.56C407.725 55.112 408.813 54.472 409.581 53.64C410.349 52.744 410.733 51.656 410.733 50.376C410.733 49.416 410.477 48.552 409.965 47.784C409.517 47.016 408.877 46.344 408.045 45.768C407.213 45.192 406.221 44.68 405.069 44.232C403.917 43.72 402.701 43.304 401.421 42.984C400.141 42.6 398.829 42.28 397.485 42.024C393.773 41.192 390.541 40.168 387.789 38.952C385.037 37.736 382.733 36.264 380.877 34.536C379.085 32.744 377.741 30.728 376.845 28.488C375.949 26.184 375.501 23.624 375.501 20.808C375.501 17.8 376.173 15.048 377.517 12.552C378.925 9.992 380.781 7.816 383.085 6.024C385.453 4.168 388.173 2.75999 391.245 1.8C394.317 0.775997 397.517 0.263998 400.845 0.263998C405.261 0.263998 409.037 0.743998 412.173 1.704C415.373 2.6 418.093 3.912 420.333 5.64C422.637 7.368 424.589 9.448 426.189 11.88L416.109 21.576C414.765 19.912 413.293 18.536 411.693 17.448C410.157 16.36 408.493 15.528 406.701 14.952C404.973 14.376 403.181 14.088 401.325 14.088C399.405 14.088 397.741 14.344 396.333 14.856C394.989 15.304 393.933 15.976 393.165 16.872C392.397 17.704 392.013 18.728 392.013 19.944C392.013 21.032 392.333 21.96 392.973 22.728C393.613 23.496 394.477 24.2 395.565 24.84C396.653 25.416 397.901 25.928 399.309 26.376C400.717 26.76 402.189 27.08 403.725 27.336C407.245 28.04 410.413 28.968 413.229 30.12C416.109 31.272 418.573 32.68 420.621 34.344C422.733 36.008 424.333 37.992 425.421 40.296C426.573 42.536 427.149 45.16 427.149 48.168C427.149 52.84 425.997 56.808 423.693 60.072C421.453 63.272 418.349 65.736 414.381 67.464C410.477 69.128 405.965 69.96 400.845 69.96ZM439.417 69V1.8H486.265V15.72H455.257V55.08H487.225V69H439.417ZM447.097 41.448V28.2H481.945V41.448H447.097ZM523.564 69.96C519.148 69.96 515.148 69.448 511.564 68.424C508.044 67.336 504.908 65.8 502.156 63.816C499.404 61.768 496.94 59.368 494.764 56.616L504.652 45.384C507.852 49.672 511.052 52.552 514.252 54.024C517.516 55.496 520.876 56.232 524.332 56.232C526.06 56.232 527.628 56.008 529.036 55.56C530.444 55.112 531.532 54.472 532.3 53.64C533.068 52.744 533.452 51.656 533.452 50.376C533.452 49.416 533.196 48.552 532.684 47.784C532.236 47.016 531.596 46.344 530.764 45.768C529.932 45.192 528.94 44.68 527.788 44.232C526.636 43.72 525.42 43.304 524.14 42.984C522.86 42.6 521.548 42.28 520.204 42.024C516.492 41.192 513.26 40.168 510.508 38.952C507.756 37.736 505.452 36.264 503.596 34.536C501.804 32.744 500.46 30.728 499.564 28.488C498.668 26.184 498.22 23.624 498.22 20.808C498.22 17.8 498.892 15.048 500.236 12.552C501.644 9.992 503.5 7.816 505.804 6.024C508.172 4.168 510.892 2.75999 513.964 1.8C517.036 0.775997 520.236 0.263998 523.564 0.263998C527.98 0.263998 531.756 0.743998 534.892 1.704C538.092 2.6 540.812 3.912 543.052 5.64C545.356 7.368 547.308 9.448 548.908 11.88L538.828 21.576C537.484 19.912 536.012 18.536 534.412 17.448C532.876 16.36 531.212 15.528 529.42 14.952C527.692 14.376 525.9 14.088 524.044 14.088C522.124 14.088 520.46 14.344 519.052 14.856C517.708 15.304 516.652 15.976 515.884 16.872C515.116 17.704 514.732 18.728 514.732 19.944C514.732 21.032 515.052 21.96 515.692 22.728C516.332 23.496 517.196 24.2 518.284 24.84C519.372 25.416 520.62 25.928 522.028 26.376C523.436 26.76 524.908 27.08 526.444 27.336C529.964 28.04 533.132 28.968 535.948 30.12C538.828 31.272 541.292 32.68 543.34 34.344C545.452 36.008 547.052 37.992 548.14 40.296C549.292 42.536 549.868 45.16 549.868 48.168C549.868 52.84 548.716 56.808 546.412 60.072C544.172 63.272 541.068 65.736 537.1 67.464C533.196 69.128 528.684 69.96 523.564 69.96Z" fill="url(#paint0_linear_124_14)"/>
<defs>
<linearGradient id="paint0_linear_124_14" x1="273" y1="-27" x2="273" y2="93" gradientUnits="userSpaceOnUse">
<stop stop-color="#C90235"/>
<stop offset="0.46875" stop-color="#9608F7"/>
<stop offset="1" stop-color="#CB7563"/>
</linearGradient>
</defs>
</svg>
