<svg width="327" height="71" viewBox="0 0 327 71" fill="none" xmlns="http://www.w3.org/2000/svg">
<path d="M0.901126 69.3022V2.10224H15.4931L39.9731 41.9422L29.5091 41.8462L54.2771 2.10224H68.2931V69.3022H52.4531V48.3742C52.4531 42.6142 52.5811 37.4302 52.8371 32.8222C53.1571 28.2142 53.6691 23.6382 54.3731 19.0942L56.1971 24.0862L37.5731 52.9822H31.2371L12.9971 24.2782L14.8211 19.0942C15.5251 23.3822 16.0051 27.7982 16.2611 32.3422C16.5811 36.8222 16.7411 42.1662 16.7411 48.3742V69.3022H0.901126ZM113.502 69.8782C107.934 69.8782 102.974 68.7582 98.6224 66.5182C94.2704 64.2142 90.8464 61.0782 88.3504 57.1102C85.9184 53.1422 84.7024 48.5982 84.7024 43.4782V2.10224H101.214V42.6142C101.214 45.0462 101.758 47.2542 102.846 49.2382C103.934 51.1582 105.406 52.6942 107.262 53.8462C109.118 54.9342 111.198 55.4782 113.502 55.4782C115.934 55.4782 118.078 54.9342 119.934 53.8462C121.854 52.6942 123.39 51.1582 124.542 49.2382C125.694 47.2542 126.27 45.0462 126.27 42.6142V2.10224H142.206V43.4782C142.206 48.5982 140.958 53.1422 138.462 57.1102C136.03 61.0782 132.638 64.2142 128.286 66.5182C123.934 68.7582 119.006 69.8782 113.502 69.8782ZM179.923 70.2622C175.507 70.2622 171.507 69.7502 167.923 68.7262C164.403 67.6382 161.267 66.1022 158.515 64.1182C155.763 62.0702 153.299 59.6702 151.123 56.9182L161.011 45.6862C164.211 49.9742 167.411 52.8542 170.611 54.3262C173.875 55.7982 177.235 56.5342 180.691 56.5342C182.419 56.5342 183.987 56.3102 185.395 55.8622C186.803 55.4142 187.891 54.7742 188.659 53.9422C189.427 53.0462 189.811 51.9582 189.811 50.6782C189.811 49.7182 189.555 48.8542 189.043 48.0862C188.595 47.3182 187.955 46.6462 187.123 46.0702C186.291 45.4942 185.299 44.9822 184.147 44.5342C182.995 44.0222 181.779 43.6062 180.499 43.2862C179.219 42.9022 177.907 42.5822 176.563 42.3262C172.851 41.4942 169.619 40.4702 166.867 39.2542C164.115 38.0382 161.811 36.5662 159.955 34.8382C158.163 33.0462 156.819 31.0302 155.923 28.7902C155.027 26.4862 154.579 23.9262 154.579 21.1102C154.579 18.1022 155.251 15.3502 156.595 12.8542C158.003 10.2942 159.859 8.11824 162.163 6.32624C164.531 4.47024 167.251 3.06224 170.323 2.10224C173.395 1.07824 176.595 0.566244 179.923 0.566244C184.339 0.566244 188.115 1.04624 191.251 2.00624C194.451 2.90224 197.171 4.21424 199.411 5.94224C201.715 7.67024 203.667 9.75024 205.267 12.1822L195.187 21.8782C193.843 20.2142 192.371 18.8382 190.771 17.7502C189.235 16.6622 187.571 15.8302 185.779 15.2542C184.051 14.6782 182.259 14.3902 180.403 14.3902C178.483 14.3902 176.819 14.6462 175.411 15.1582C174.067 15.6062 173.011 16.2782 172.243 17.1742C171.475 18.0062 171.091 19.0302 171.091 20.2462C171.091 21.3342 171.411 22.2622 172.051 23.0302C172.691 23.7982 173.555 24.5022 174.643 25.1422C175.731 25.7182 176.979 26.2302 178.387 26.6782C179.795 27.0622 181.267 27.3822 182.803 27.6382C186.323 28.3422 189.491 29.2702 192.307 30.4222C195.187 31.5742 197.651 32.9822 199.699 34.6462C201.811 36.3102 203.411 38.2942 204.499 40.5982C205.651 42.8382 206.227 45.4622 206.227 48.4702C206.227 53.1422 205.075 57.1102 202.771 60.3742C200.531 63.5742 197.427 66.0382 193.459 67.7662C189.555 69.4302 185.043 70.2622 179.923 70.2622ZM217.151 69.3022V55.5742H228.479V15.8302H217.151V2.10224H256.223V15.8302H244.799V55.5742H256.223V69.3022H217.151ZM300.867 70.2622C295.811 70.2622 291.139 69.4302 286.851 67.7662C282.627 66.0382 278.947 63.6382 275.811 60.5662C272.675 57.4302 270.243 53.7502 268.515 49.5262C266.851 45.2382 266.019 40.5342 266.019 35.4142C266.019 30.4222 266.915 25.8142 268.707 21.5902C270.499 17.3662 272.963 13.7182 276.099 10.6462C279.299 7.51024 283.043 5.07824 287.331 3.35024C291.683 1.62224 296.419 0.758242 301.539 0.758242C304.739 0.758242 307.875 1.17424 310.947 2.00624C314.019 2.83824 316.867 4.08624 319.491 5.75024C322.179 7.35024 324.483 9.27024 326.403 11.5102L316.419 22.9342C315.075 21.5262 313.635 20.3102 312.099 19.2862C310.627 18.1982 308.995 17.3662 307.203 16.7902C305.411 16.2142 303.491 15.9262 301.443 15.9262C298.883 15.9262 296.451 16.4062 294.147 17.3662C291.907 18.2622 289.923 19.5742 288.195 21.3022C286.531 22.9662 285.219 25.0142 284.259 27.4462C283.299 29.8782 282.819 32.5982 282.819 35.6062C282.819 38.5502 283.299 41.2382 284.259 43.6702C285.219 46.0382 286.563 48.0862 288.291 49.8142C290.019 51.5422 292.099 52.8542 294.531 53.7502C297.027 54.6462 299.779 55.0942 302.787 55.0942C304.835 55.0942 306.787 54.8062 308.643 54.2302C310.499 53.6542 312.195 52.8862 313.731 51.9262C315.331 50.9022 316.739 49.7502 317.955 48.4702L325.827 60.9502C324.227 62.7422 322.083 64.3422 319.395 65.7502C316.771 67.1582 313.827 68.2782 310.563 69.1102C307.363 69.8782 304.131 70.2622 300.867 70.2622Z" fill="url(#paint0_linear_124_11)"/>
<defs>
<linearGradient id="paint0_linear_124_11" x1="160.5" y1="-26.6978" x2="160.5" y2="93.3022" gradientUnits="userSpaceOnUse">
<stop stop-color="#C90235"/>
<stop offset="0.46875" stop-color="#9608F7"/>
<stop offset="1" stop-color="#CB7563"/>
</linearGradient>
</defs>
</svg>
