<svg width="439" height="94" viewBox="0 0 439 94" fill="none" xmlns="http://www.w3.org/2000/svg">
<path d="M0.651126 72V4.8H29.6431C33.8671 4.8 37.6111 5.76 40.8751 7.68C44.2031 9.6 46.8271 12.224 48.7471 15.552C50.7311 18.88 51.7231 22.624 51.7231 26.784C51.7231 31.136 50.7311 35.04 48.7471 38.496C46.8271 41.888 44.2031 44.576 40.8751 46.56C37.6111 48.544 33.8671 49.536 29.6431 49.536H16.9711V72H0.651126ZM16.6831 35.232H27.3391C28.7471 35.232 30.0271 34.88 31.1791 34.176C32.3311 33.472 33.2591 32.512 33.9631 31.296C34.6671 30.08 35.0191 28.672 35.0191 27.072C35.0191 25.408 34.6671 24 33.9631 22.848C33.2591 21.696 32.3311 20.8 31.1791 20.16C30.0271 19.52 28.7471 19.2 27.3391 19.2H16.6831V35.232ZM79.4889 73.056C75.7129 73.056 72.4809 72.256 69.7929 70.656C67.1689 68.992 65.1209 66.624 63.6489 63.552C62.2409 60.48 61.5369 56.8 61.5369 52.512V21.024H76.9929V50.4C76.9929 52.448 77.3129 54.208 77.9529 55.68C78.5929 57.152 79.5529 58.304 80.8329 59.136C82.1129 59.904 83.6489 60.288 85.4409 60.288C86.7849 60.288 88.0009 60.064 89.0889 59.616C90.2409 59.168 91.2009 58.56 91.9689 57.792C92.8009 56.96 93.4409 56.032 93.8889 55.008C94.3369 53.92 94.5609 52.736 94.5609 51.456V21.024H110.017V72H95.5209L94.8489 61.536L97.7289 60.384C96.9609 62.816 95.6809 64.992 93.8889 66.912C92.0969 68.768 89.9529 70.272 87.4569 71.424C84.9609 72.512 82.3049 73.056 79.4889 73.056ZM140.891 72.96C135.899 72.96 131.483 72.16 127.643 70.56C123.867 68.96 120.859 66.816 118.619 64.128L127.931 56.064C129.915 58.048 132.155 59.52 134.651 60.48C137.147 61.376 139.515 61.824 141.755 61.824C142.651 61.824 143.451 61.728 144.155 61.536C144.859 61.344 145.435 61.088 145.883 60.768C146.395 60.384 146.779 59.968 147.035 59.52C147.291 59.008 147.419 58.432 147.419 57.792C147.419 56.512 146.843 55.52 145.691 54.816C145.115 54.496 144.155 54.112 142.811 53.664C141.467 53.216 139.739 52.704 137.627 52.128C134.619 51.36 131.995 50.464 129.755 49.44C127.579 48.352 125.787 47.104 124.379 45.696C123.099 44.352 122.107 42.88 121.403 41.28C120.699 39.616 120.347 37.76 120.347 35.712C120.347 33.344 120.891 31.2 121.979 29.28C123.131 27.36 124.635 25.696 126.491 24.288C128.411 22.88 130.587 21.824 133.019 21.12C135.515 20.352 138.075 19.968 140.699 19.968C143.515 19.968 146.203 20.288 148.763 20.928C151.323 21.568 153.691 22.464 155.867 23.616C158.107 24.768 160.091 26.144 161.819 27.744L153.755 36.768C152.603 35.68 151.291 34.72 149.819 33.888C148.411 32.992 146.939 32.288 145.403 31.776C143.867 31.264 142.459 31.008 141.179 31.008C140.219 31.008 139.355 31.104 138.587 31.296C137.883 31.424 137.275 31.68 136.763 32.064C136.251 32.384 135.867 32.8 135.611 33.312C135.355 33.76 135.227 34.304 135.227 34.944C135.227 35.584 135.387 36.192 135.707 36.768C136.091 37.344 136.603 37.824 137.243 38.208C137.883 38.592 138.907 39.04 140.315 39.552C141.723 40 143.643 40.576 146.075 41.28C149.083 42.112 151.675 43.04 153.851 44.064C156.027 45.088 157.755 46.304 159.035 47.712C160.059 48.8 160.827 50.08 161.339 51.552C161.851 52.96 162.107 54.496 162.107 56.16C162.107 59.424 161.179 62.336 159.323 64.896C157.531 67.392 155.035 69.376 151.835 70.848C148.635 72.256 144.987 72.96 140.891 72.96ZM171.238 72V0.959999H186.31V31.392L183.238 32.544C183.942 30.24 185.19 28.16 186.982 26.304C188.838 24.384 191.046 22.848 193.606 21.696C196.166 20.544 198.854 19.968 201.67 19.968C205.51 19.968 208.742 20.768 211.366 22.368C213.99 23.904 215.974 26.24 217.318 29.376C218.662 32.448 219.334 36.224 219.334 40.704V72H203.878V41.952C203.878 39.904 203.59 38.208 203.014 36.864C202.438 35.52 201.542 34.528 200.326 33.888C199.174 33.184 197.734 32.864 196.006 32.928C194.662 32.928 193.414 33.152 192.262 33.6C191.11 33.984 190.118 34.592 189.286 35.424C188.454 36.192 187.782 37.088 187.27 38.112C186.822 39.136 186.598 40.256 186.598 41.472V72H179.014C177.222 72 175.686 72 174.406 72C173.126 72 172.07 72 171.238 72ZM230.255 51.456V37.344H263.471V51.456H230.255ZM292.583 73.056C288.807 73.056 285.575 72.256 282.887 70.656C280.263 68.992 278.215 66.624 276.743 63.552C275.335 60.48 274.631 56.8 274.631 52.512V21.024H290.087V50.4C290.087 52.448 290.407 54.208 291.047 55.68C291.687 57.152 292.647 58.304 293.927 59.136C295.207 59.904 296.743 60.288 298.535 60.288C299.879 60.288 301.095 60.064 302.183 59.616C303.335 59.168 304.295 58.56 305.063 57.792C305.895 56.96 306.535 56.032 306.983 55.008C307.431 53.92 307.655 52.736 307.655 51.456V21.024H323.111V72H308.615L307.943 61.536L310.823 60.384C310.055 62.816 308.775 64.992 306.983 66.912C305.191 68.768 303.047 70.272 300.551 71.424C298.055 72.512 295.399 73.056 292.583 73.056ZM336.8 93.12V21.024H351.392L351.968 32.448L349.088 31.584C349.536 29.472 350.624 27.552 352.352 25.824C354.08 24.096 356.256 22.72 358.88 21.696C361.568 20.608 364.384 20.064 367.328 20.064C371.68 20.064 375.552 21.216 378.944 23.52C382.336 25.76 384.992 28.864 386.912 32.832C388.896 36.736 389.888 41.28 389.888 46.464C389.888 51.584 388.896 56.128 386.912 60.096C384.992 64.064 382.304 67.2 378.848 69.504C375.456 71.744 371.552 72.864 367.136 72.864C364.256 72.864 361.504 72.32 358.88 71.232C356.256 70.144 354.048 68.672 352.256 66.816C350.464 64.96 349.28 62.944 348.704 60.768L352.256 59.424V93.12H336.8ZM363.392 59.904C365.696 59.904 367.712 59.36 369.44 58.272C371.168 57.12 372.512 55.552 373.472 53.568C374.432 51.584 374.912 49.216 374.912 46.464C374.912 43.776 374.432 41.44 373.472 39.456C372.512 37.408 371.168 35.84 369.44 34.752C367.776 33.6 365.76 33.024 363.392 33.024C361.024 33.024 358.976 33.568 357.248 34.656C355.52 35.744 354.176 37.312 353.216 39.36C352.256 41.408 351.776 43.776 351.776 46.464C351.776 49.216 352.256 51.584 353.216 53.568C354.176 55.552 355.52 57.12 357.248 58.272C358.976 59.36 361.024 59.904 363.392 59.904ZM417.266 72.96C412.274 72.96 407.858 72.16 404.018 70.56C400.242 68.96 397.234 66.816 394.994 64.128L404.306 56.064C406.29 58.048 408.53 59.52 411.026 60.48C413.522 61.376 415.89 61.824 418.13 61.824C419.026 61.824 419.826 61.728 420.53 61.536C421.234 61.344 421.81 61.088 422.258 60.768C422.77 60.384 423.154 59.968 423.41 59.52C423.666 59.008 423.794 58.432 423.794 57.792C423.794 56.512 423.218 55.52 422.066 54.816C421.49 54.496 420.53 54.112 419.186 53.664C417.842 53.216 416.114 52.704 414.002 52.128C410.994 51.36 408.37 50.464 406.13 49.44C403.954 48.352 402.162 47.104 400.754 45.696C399.474 44.352 398.482 42.88 397.778 41.28C397.074 39.616 396.722 37.76 396.722 35.712C396.722 33.344 397.266 31.2 398.354 29.28C399.506 27.36 401.01 25.696 402.866 24.288C404.786 22.88 406.962 21.824 409.394 21.12C411.89 20.352 414.45 19.968 417.074 19.968C419.89 19.968 422.578 20.288 425.138 20.928C427.698 21.568 430.066 22.464 432.242 23.616C434.482 24.768 436.466 26.144 438.194 27.744L430.13 36.768C428.978 35.68 427.666 34.72 426.194 33.888C424.786 32.992 423.314 32.288 421.778 31.776C420.242 31.264 418.834 31.008 417.554 31.008C416.594 31.008 415.73 31.104 414.962 31.296C414.258 31.424 413.65 31.68 413.138 32.064C412.626 32.384 412.242 32.8 411.986 33.312C411.73 33.76 411.602 34.304 411.602 34.944C411.602 35.584 411.762 36.192 412.082 36.768C412.466 37.344 412.978 37.824 413.618 38.208C414.258 38.592 415.282 39.04 416.69 39.552C418.098 40 420.018 40.576 422.45 41.28C425.458 42.112 428.05 43.04 430.226 44.064C432.402 45.088 434.13 46.304 435.41 47.712C436.434 48.8 437.202 50.08 437.714 51.552C438.226 52.96 438.482 54.496 438.482 56.16C438.482 59.424 437.554 62.336 435.698 64.896C433.906 67.392 431.41 69.376 428.21 70.848C425.01 72.256 421.362 72.96 417.266 72.96Z" fill="url(#paint0_linear_133_4)"/>
<defs>
<linearGradient id="paint0_linear_133_4" x1="216.5" y1="-24" x2="216.5" y2="96" gradientUnits="userSpaceOnUse">
<stop stop-color="#C90235"/>
<stop offset="0.46875" stop-color="#9608F7"/>
<stop offset="1" stop-color="#CB7563"/>
</linearGradient>
</defs>
</svg>
