<svg width="342" height="99" viewBox="0 0 342 99" fill="none" xmlns="http://www.w3.org/2000/svg">
<path d="M29.1263 77.96C24.7103 77.96 20.7103 77.448 17.1263 76.424C13.6063 75.336 10.4703 73.8 7.71825 71.816C4.96625 69.768 2.50225 67.368 0.32625 64.616L10.2143 53.384C13.4143 57.672 16.6143 60.552 19.8143 62.024C23.0783 63.496 26.4383 64.232 29.8943 64.232C31.6223 64.232 33.1903 64.008 34.5983 63.56C36.0063 63.112 37.0943 62.472 37.8623 61.64C38.6303 60.744 39.0143 59.656 39.0143 58.376C39.0143 57.416 38.7583 56.552 38.2463 55.784C37.7983 55.016 37.1583 54.344 36.3263 53.768C35.4943 53.192 34.5023 52.68 33.3503 52.232C32.1983 51.72 30.9823 51.304 29.7023 50.984C28.4223 50.6 27.1103 50.28 25.7663 50.024C22.0543 49.192 18.8223 48.168 16.0703 46.952C13.3183 45.736 11.0143 44.264 9.15825 42.536C7.36625 40.744 6.02225 38.728 5.12625 36.488C4.23025 34.184 3.78225 31.624 3.78225 28.808C3.78225 25.8 4.45425 23.048 5.79825 20.552C7.20625 17.992 9.06225 15.816 11.3663 14.024C13.7343 12.168 16.4543 10.76 19.5263 9.8C22.5983 8.776 25.7983 8.264 29.1263 8.264C33.5423 8.264 37.3183 8.744 40.4543 9.704C43.6543 10.6 46.3743 11.912 48.6143 13.64C50.9183 15.368 52.8703 17.448 54.4703 19.88L44.3903 29.576C43.0463 27.912 41.5743 26.536 39.9743 25.448C38.4383 24.36 36.7743 23.528 34.9823 22.952C33.2543 22.376 31.4623 22.088 29.6063 22.088C27.6863 22.088 26.0223 22.344 24.6143 22.856C23.2703 23.304 22.2143 23.976 21.4463 24.872C20.6783 25.704 20.2943 26.728 20.2943 27.944C20.2943 29.032 20.6143 29.96 21.2543 30.728C21.8943 31.496 22.7583 32.2 23.8463 32.84C24.9343 33.416 26.1823 33.928 27.5903 34.376C28.9983 34.76 30.4703 35.08 32.0063 35.336C35.5263 36.04 38.6943 36.968 41.5103 38.12C44.3903 39.272 46.8543 40.68 48.9023 42.344C51.0143 44.008 52.6143 45.992 53.7023 48.296C54.8543 50.536 55.4303 53.16 55.4303 56.168C55.4303 60.84 54.2783 64.808 51.9743 68.072C49.7343 71.272 46.6303 73.736 42.6623 75.464C38.7583 77.128 34.2463 77.96 29.1263 77.96ZM66.93 77V26.024H82.29V77H66.93ZM74.61 15.944C71.73 15.944 69.458 15.272 67.794 13.928C66.194 12.52 65.394 10.536 65.394 7.976C65.394 5.672 66.226 3.78399 67.89 2.31199C69.554 0.839994 71.794 0.103994 74.61 0.103994C77.49 0.103994 79.73 0.807995 81.33 2.216C82.93 3.56 83.73 5.48 83.73 7.976C83.73 10.344 82.898 12.264 81.234 13.736C79.634 15.208 77.426 15.944 74.61 15.944ZM100.946 77V13.16H116.306V77H100.946ZM91.9223 39.464V26.024H126.194V39.464H91.9223ZM133.052 56.456V42.344H166.268V56.456H133.052ZM195.38 78.056C191.604 78.056 188.372 77.256 185.684 75.656C183.06 73.992 181.012 71.624 179.54 68.552C178.132 65.48 177.428 61.8 177.428 57.512V26.024H192.884V55.4C192.884 57.448 193.204 59.208 193.844 60.68C194.484 62.152 195.444 63.304 196.724 64.136C198.004 64.904 199.54 65.288 201.332 65.288C202.676 65.288 203.892 65.064 204.98 64.616C206.132 64.168 207.092 63.56 207.86 62.792C208.692 61.96 209.332 61.032 209.78 60.008C210.228 58.92 210.452 57.736 210.452 56.456V26.024H225.908V77H211.412L210.74 66.536L213.62 65.384C212.852 67.816 211.572 69.992 209.78 71.912C207.988 73.768 205.844 75.272 203.348 76.424C200.852 77.512 198.196 78.056 195.38 78.056ZM239.597 98.12V26.024H254.189L254.765 37.448L251.885 36.584C252.333 34.472 253.421 32.552 255.149 30.824C256.877 29.096 259.053 27.72 261.677 26.696C264.365 25.608 267.181 25.064 270.125 25.064C274.477 25.064 278.349 26.216 281.741 28.52C285.133 30.76 287.789 33.864 289.709 37.832C291.693 41.736 292.685 46.28 292.685 51.464C292.685 56.584 291.693 61.128 289.709 65.096C287.789 69.064 285.101 72.2 281.645 74.504C278.253 76.744 274.349 77.864 269.933 77.864C267.053 77.864 264.301 77.32 261.677 76.232C259.053 75.144 256.845 73.672 255.053 71.816C253.261 69.96 252.077 67.944 251.501 65.768L255.053 64.424V98.12H239.597ZM266.189 64.904C268.493 64.904 270.509 64.36 272.237 63.272C273.965 62.12 275.309 60.552 276.269 58.568C277.229 56.584 277.709 54.216 277.709 51.464C277.709 48.776 277.229 46.44 276.269 44.456C275.309 42.408 273.965 40.84 272.237 39.752C270.573 38.6 268.557 38.024 266.189 38.024C263.821 38.024 261.773 38.568 260.045 39.656C258.317 40.744 256.973 42.312 256.013 44.36C255.053 46.408 254.573 48.776 254.573 51.464C254.573 54.216 255.053 56.584 256.013 58.568C256.973 60.552 258.317 62.12 260.045 63.272C261.773 64.36 263.821 64.904 266.189 64.904ZM320.062 77.96C315.071 77.96 310.655 77.16 306.815 75.56C303.039 73.96 300.031 71.816 297.791 69.128L307.103 61.064C309.087 63.048 311.327 64.52 313.823 65.48C316.319 66.376 318.687 66.824 320.927 66.824C321.823 66.824 322.623 66.728 323.327 66.536C324.031 66.344 324.607 66.088 325.055 65.768C325.567 65.384 325.951 64.968 326.207 64.52C326.463 64.008 326.591 63.432 326.591 62.792C326.591 61.512 326.015 60.52 324.863 59.816C324.287 59.496 323.327 59.112 321.983 58.664C320.639 58.216 318.911 57.704 316.799 57.128C313.791 56.36 311.167 55.464 308.927 54.44C306.751 53.352 304.959 52.104 303.551 50.696C302.271 49.352 301.279 47.88 300.575 46.28C299.871 44.616 299.519 42.76 299.519 40.712C299.519 38.344 300.063 36.2 301.151 34.28C302.303 32.36 303.807 30.696 305.663 29.288C307.583 27.88 309.759 26.824 312.191 26.12C314.687 25.352 317.247 24.968 319.871 24.968C322.687 24.968 325.375 25.288 327.935 25.928C330.495 26.568 332.863 27.464 335.039 28.616C337.279 29.768 339.263 31.144 340.991 32.744L332.927 41.768C331.775 40.68 330.463 39.72 328.991 38.888C327.583 37.992 326.111 37.288 324.575 36.776C323.039 36.264 321.631 36.008 320.351 36.008C319.391 36.008 318.527 36.104 317.759 36.296C317.055 36.424 316.447 36.68 315.935 37.064C315.423 37.384 315.039 37.8 314.783 38.312C314.527 38.76 314.399 39.304 314.399 39.944C314.399 40.584 314.559 41.192 314.879 41.768C315.263 42.344 315.775 42.824 316.415 43.208C317.055 43.592 318.079 44.04 319.487 44.552C320.895 45 322.815 45.576 325.247 46.28C328.255 47.112 330.847 48.04 333.023 49.064C335.199 50.088 336.927 51.304 338.207 52.712C339.231 53.8 339.999 55.08 340.511 56.552C341.023 57.96 341.279 59.496 341.279 61.16C341.279 64.424 340.351 67.336 338.495 69.896C336.703 72.392 334.207 74.376 331.007 75.848C327.807 77.256 324.159 77.96 320.062 77.96Z" fill="url(#paint0_linear_133_4)"/>
<defs>
<linearGradient id="paint0_linear_133_4" x1="171" y1="-19" x2="171" y2="101" gradientUnits="userSpaceOnUse">
<stop stop-color="#C90235"/>
<stop offset="0.46875" stop-color="#9608F7"/>
<stop offset="1" stop-color="#CB7563"/>
</linearGradient>
</defs>
</svg>
