<svg width="333" height="91" viewBox="0 0 333 91" fill="none" xmlns="http://www.w3.org/2000/svg">
<path d="M28.9388 69.96C24.5228 69.96 20.5228 69.448 16.9388 68.424C13.4188 67.336 10.2828 65.8 7.53075 63.816C4.77875 61.768 2.31475 59.368 0.13875 56.616L10.0268 45.384C13.2268 49.672 16.4268 52.552 19.6268 54.024C22.8908 55.496 26.2508 56.232 29.7068 56.232C31.4348 56.232 33.0028 56.008 34.4108 55.56C35.8188 55.112 36.9068 54.472 37.6748 53.64C38.4428 52.744 38.8268 51.656 38.8268 50.376C38.8268 49.416 38.5708 48.552 38.0588 47.784C37.6108 47.016 36.9708 46.344 36.1388 45.768C35.3068 45.192 34.3148 44.68 33.1628 44.232C32.0108 43.72 30.7948 43.304 29.5148 42.984C28.2348 42.6 26.9228 42.28 25.5788 42.024C21.8668 41.192 18.6348 40.168 15.8828 38.952C13.1308 37.736 10.8268 36.264 8.97075 34.536C7.17875 32.744 5.83475 30.728 4.93875 28.488C4.04275 26.184 3.59475 23.624 3.59475 20.808C3.59475 17.8 4.26675 15.048 5.61075 12.552C7.01875 9.992 8.87475 7.816 11.1788 6.024C13.5468 4.168 16.2668 2.75999 19.3388 1.8C22.4108 0.775997 25.6108 0.263998 28.9388 0.263998C33.3548 0.263998 37.1308 0.743998 40.2668 1.704C43.4668 2.6 46.1868 3.912 48.4268 5.64C50.7308 7.368 52.6828 9.448 54.2828 11.88L44.2028 21.576C42.8588 19.912 41.3868 18.536 39.7868 17.448C38.2508 16.36 36.5868 15.528 34.7948 14.952C33.0668 14.376 31.2748 14.088 29.4188 14.088C27.4988 14.088 25.8348 14.344 24.4268 14.856C23.0828 15.304 22.0268 15.976 21.2588 16.872C20.4908 17.704 20.1068 18.728 20.1068 19.944C20.1068 21.032 20.4268 21.96 21.0668 22.728C21.7068 23.496 22.5708 24.2 23.6588 24.84C24.7468 25.416 25.9948 25.928 27.4028 26.376C28.8108 26.76 30.2828 27.08 31.8188 27.336C35.3388 28.04 38.5068 28.968 41.3228 30.12C44.2028 31.272 46.6668 32.68 48.7148 34.344C50.8268 36.008 52.4268 37.992 53.5148 40.296C54.6668 42.536 55.2428 45.16 55.2428 48.168C55.2428 52.84 54.0908 56.808 51.7868 60.072C49.5468 63.272 46.4428 65.736 42.4748 67.464C38.5708 69.128 34.0588 69.96 28.9388 69.96ZM99.9585 90.12V56.712L103.319 57.48C103.063 59.08 102.391 60.648 101.303 62.184C100.215 63.656 98.8385 64.968 97.1745 66.12C95.5745 67.272 93.7505 68.2 91.7025 68.904C89.6545 69.544 87.5425 69.864 85.3665 69.864C80.8865 69.864 76.9185 68.744 73.4625 66.504C70.0065 64.2 67.2865 61.064 65.3025 57.096C63.3185 53.128 62.3265 48.584 62.3265 43.464C62.3265 38.28 63.2865 33.704 65.2065 29.736C67.1905 25.768 69.8785 22.664 73.2705 20.424C76.7265 18.12 80.5985 16.968 84.8865 16.968C87.3185 16.968 89.6225 17.32 91.7985 18.024C93.9745 18.728 95.9265 19.656 97.6545 20.808C99.3825 21.96 100.791 23.304 101.879 24.84C102.967 26.312 103.575 27.88 103.703 29.544L100.247 30.12L100.823 18.024H115.415V90.12H99.9585ZM88.8225 56.904C91.1905 56.904 93.2385 56.36 94.9665 55.272C96.6945 54.184 98.0385 52.648 98.9985 50.664C99.9585 48.616 100.439 46.216 100.439 43.464C100.439 40.712 99.9585 38.344 98.9985 36.36C98.0385 34.312 96.6945 32.744 94.9665 31.656C93.2385 30.504 91.1905 29.928 88.8225 29.928C86.5185 29.928 84.5025 30.504 82.7745 31.656C81.0465 32.744 79.7025 34.312 78.7425 36.36C77.8465 38.408 77.3985 40.776 77.3985 43.464C77.3985 46.216 77.8465 48.616 78.7425 50.664C79.7025 52.648 81.0465 54.184 82.7745 55.272C84.5025 56.36 86.5185 56.904 88.8225 56.904ZM146.442 70.056C142.666 70.056 139.434 69.256 136.746 67.656C134.122 65.992 132.074 63.624 130.602 60.552C129.194 57.48 128.49 53.8 128.49 49.512V18.024H143.946V47.4C143.946 49.448 144.266 51.208 144.906 52.68C145.546 54.152 146.506 55.304 147.786 56.136C149.066 56.904 150.602 57.288 152.394 57.288C153.738 57.288 154.954 57.064 156.042 56.616C157.194 56.168 158.154 55.56 158.922 54.792C159.754 53.96 160.394 53.032 160.842 52.008C161.29 50.92 161.514 49.736 161.514 48.456V18.024H176.97V69H162.474L161.802 58.536L164.682 57.384C163.914 59.816 162.634 61.992 160.842 63.912C159.05 65.768 156.906 67.272 154.41 68.424C151.914 69.512 149.258 70.056 146.442 70.056ZM209.476 69.864C205.188 69.864 201.348 68.744 197.956 66.504C194.628 64.2 191.972 61.064 189.988 57.096C188.004 53.064 187.012 48.52 187.012 43.464C187.012 38.28 188.004 33.704 189.988 29.736C191.972 25.768 194.692 22.664 198.148 20.424C201.604 18.12 205.54 16.968 209.956 16.968C212.388 16.968 214.596 17.32 216.58 18.024C218.628 18.728 220.42 19.72 221.956 21C223.492 22.216 224.804 23.656 225.892 25.32C226.98 26.92 227.78 28.648 228.292 30.504L225.124 30.12V18.024H240.388V69H224.836V56.712L228.292 56.616C227.78 58.408 226.948 60.104 225.796 61.704C224.644 63.304 223.236 64.712 221.572 65.928C219.908 67.144 218.052 68.104 216.004 68.808C213.956 69.512 211.78 69.864 209.476 69.864ZM213.7 56.904C216.068 56.904 218.116 56.36 219.844 55.272C221.572 54.184 222.916 52.648 223.876 50.664C224.836 48.616 225.316 46.216 225.316 43.464C225.316 40.712 224.836 38.344 223.876 36.36C222.916 34.312 221.572 32.744 219.844 31.656C218.116 30.504 216.068 29.928 213.7 29.928C211.396 29.928 209.38 30.504 207.652 31.656C205.988 32.744 204.676 34.312 203.716 36.36C202.756 38.344 202.276 40.712 202.276 43.464C202.276 46.216 202.756 48.616 203.716 50.664C204.676 52.648 205.988 54.184 207.652 55.272C209.38 56.36 211.396 56.904 213.7 56.904ZM258.165 69V5.16H273.525V69H258.165ZM249.141 31.464V18.024H283.413V31.464H249.141ZM311.25 69.96C306.258 69.96 301.842 69.16 298.002 67.56C294.226 65.96 291.218 63.816 288.978 61.128L298.29 53.064C300.274 55.048 302.514 56.52 305.01 57.48C307.506 58.376 309.874 58.824 312.114 58.824C313.01 58.824 313.81 58.728 314.514 58.536C315.218 58.344 315.794 58.088 316.242 57.768C316.754 57.384 317.138 56.968 317.394 56.52C317.65 56.008 317.778 55.432 317.778 54.792C317.778 53.512 317.202 52.52 316.05 51.816C315.474 51.496 314.514 51.112 313.17 50.664C311.826 50.216 310.098 49.704 307.986 49.128C304.978 48.36 302.354 47.464 300.114 46.44C297.938 45.352 296.146 44.104 294.738 42.696C293.458 41.352 292.466 39.88 291.762 38.28C291.058 36.616 290.706 34.76 290.706 32.712C290.706 30.344 291.25 28.2 292.338 26.28C293.49 24.36 294.994 22.696 296.85 21.288C298.77 19.88 300.946 18.824 303.378 18.12C305.874 17.352 308.434 16.968 311.058 16.968C313.874 16.968 316.562 17.288 319.122 17.928C321.682 18.568 324.05 19.464 326.226 20.616C328.466 21.768 330.45 23.144 332.178 24.744L324.114 33.768C322.962 32.68 321.65 31.72 320.178 30.888C318.77 29.992 317.298 29.288 315.762 28.776C314.226 28.264 312.818 28.008 311.538 28.008C310.578 28.008 309.714 28.104 308.946 28.296C308.242 28.424 307.634 28.68 307.122 29.064C306.61 29.384 306.226 29.8 305.97 30.312C305.714 30.76 305.586 31.304 305.586 31.944C305.586 32.584 305.746 33.192 306.066 33.768C306.45 34.344 306.962 34.824 307.602 35.208C308.242 35.592 309.266 36.04 310.674 36.552C312.082 37 314.002 37.576 316.434 38.28C319.442 39.112 322.034 40.04 324.21 41.064C326.386 42.088 328.114 43.304 329.394 44.712C330.418 45.8 331.186 47.08 331.698 48.552C332.21 49.96 332.466 51.496 332.466 53.16C332.466 56.424 331.538 59.336 329.682 61.896C327.89 64.392 325.394 66.376 322.194 67.848C318.994 69.256 315.346 69.96 311.25 69.96Z" fill="url(#paint0_linear_133_4)"/>
<defs>
<linearGradient id="paint0_linear_133_4" x1="166.5" y1="-27" x2="166.5" y2="93" gradientUnits="userSpaceOnUse">
<stop stop-color="#C90235"/>
<stop offset="0.46875" stop-color="#9608F7"/>
<stop offset="1" stop-color="#CB7563"/>
</linearGradient>
</defs>
</svg>
