<svg width="310" height="70" viewBox="0 0 310 70" fill="none" xmlns="http://www.w3.org/2000/svg">
<path d="M29.1888 69.96C24.7728 69.96 20.7728 69.448 17.1888 68.424C13.6688 67.336 10.5328 65.8 7.78075 63.816C5.02875 61.768 2.56475 59.368 0.38875 56.616L10.2768 45.384C13.4768 49.672 16.6768 52.552 19.8768 54.024C23.1408 55.496 26.5008 56.232 29.9568 56.232C31.6848 56.232 33.2528 56.008 34.6608 55.56C36.0688 55.112 37.1568 54.472 37.9248 53.64C38.6928 52.744 39.0768 51.656 39.0768 50.376C39.0768 49.416 38.8208 48.552 38.3088 47.784C37.8608 47.016 37.2208 46.344 36.3888 45.768C35.5568 45.192 34.5648 44.68 33.4128 44.232C32.2608 43.72 31.0448 43.304 29.7648 42.984C28.4848 42.6 27.1728 42.28 25.8288 42.024C22.1168 41.192 18.8848 40.168 16.1328 38.952C13.3808 37.736 11.0768 36.264 9.22075 34.536C7.42875 32.744 6.08475 30.728 5.18875 28.488C4.29275 26.184 3.84475 23.624 3.84475 20.808C3.84475 17.8 4.51675 15.048 5.86075 12.552C7.26875 9.992 9.12475 7.816 11.4288 6.024C13.7968 4.168 16.5168 2.75999 19.5888 1.8C22.6608 0.775997 25.8608 0.263998 29.1888 0.263998C33.6048 0.263998 37.3808 0.743998 40.5168 1.704C43.7168 2.6 46.4368 3.912 48.6768 5.64C50.9808 7.368 52.9328 9.448 54.5328 11.88L44.4528 21.576C43.1088 19.912 41.6368 18.536 40.0368 17.448C38.5008 16.36 36.8368 15.528 35.0448 14.952C33.3168 14.376 31.5248 14.088 29.6688 14.088C27.7488 14.088 26.0848 14.344 24.6768 14.856C23.3328 15.304 22.2768 15.976 21.5088 16.872C20.7408 17.704 20.3568 18.728 20.3568 19.944C20.3568 21.032 20.6768 21.96 21.3168 22.728C21.9568 23.496 22.8208 24.2 23.9088 24.84C24.9968 25.416 26.2448 25.928 27.6528 26.376C29.0608 26.76 30.5328 27.08 32.0688 27.336C35.5888 28.04 38.7568 28.968 41.5728 30.12C44.4528 31.272 46.9168 32.68 48.9648 34.344C51.0768 36.008 52.6768 37.992 53.7648 40.296C54.9168 42.536 55.4928 45.16 55.4928 48.168C55.4928 52.84 54.3408 56.808 52.0368 60.072C49.7968 63.272 46.6928 65.736 42.7248 67.464C38.8208 69.128 34.3088 69.96 29.1888 69.96ZM82.3525 69V16.2H62.3845V1.8H119.121V16.2H98.6725V69H82.3525ZM117.341 69L143.934 1.8H157.758L184.158 69H167.646L154.974 34.92C154.462 33.576 153.95 32.136 153.438 30.6C152.926 29.064 152.414 27.496 151.902 25.896C151.39 24.232 150.878 22.632 150.366 21.096C149.918 19.496 149.534 18.024 149.214 16.68L152.094 16.584C151.71 18.184 151.262 19.752 150.75 21.288C150.302 22.824 149.822 24.36 149.31 25.896C148.862 27.368 148.35 28.872 147.774 30.408C147.198 31.88 146.654 33.416 146.142 35.016L133.47 69H117.341ZM130.014 56.136L135.102 43.848H166.014L171.006 56.136H130.014ZM192.542 69V1.8H222.782C227.07 1.8 230.942 2.728 234.398 4.584C237.918 6.44 240.67 9 242.654 12.264C244.638 15.464 245.63 19.112 245.63 23.208C245.63 27.432 244.638 31.24 242.654 34.632C240.67 37.96 237.95 40.584 234.494 42.504C231.038 44.424 227.134 45.384 222.782 45.384H208.094V69H192.542ZM229.79 69L212.702 38.664L229.406 36.264L248.414 69H229.79ZM208.094 32.904H221.342C223.006 32.904 224.446 32.552 225.662 31.848C226.942 31.08 227.902 30.024 228.542 28.68C229.246 27.336 229.598 25.8 229.598 24.072C229.598 22.344 229.214 20.84 228.446 19.56C227.678 18.216 226.558 17.192 225.086 16.488C223.678 15.784 221.95 15.432 219.902 15.432H208.094V32.904ZM272.665 69V16.2H252.697V1.8H309.433V16.2H288.985V69H272.665Z" fill="url(#paint0_linear_124_18)"/>
<defs>
<linearGradient id="paint0_linear_124_18" x1="155.5" y1="-27" x2="155.5" y2="93" gradientUnits="userSpaceOnUse">
<stop stop-color="#C90235"/>
<stop offset="0.46875" stop-color="#9608F7"/>
<stop offset="1" stop-color="#CB7563"/>
</linearGradient>
</defs>
</svg>
