<svg width="365" height="100" viewBox="0 0 365 100" fill="none" xmlns="http://www.w3.org/2000/svg">
<path d="M20.2119 77V24.2H0.243875V9.8H56.9799V24.2H36.5319V77H20.2119ZM67.7581 77V26.024H83.1181V77H67.7581ZM75.4381 15.944C72.5581 15.944 70.2861 15.272 68.6221 13.928C67.0221 12.52 66.2221 10.536 66.2221 7.976C66.2221 5.672 67.0541 3.78399 68.7181 2.31199C70.3821 0.839994 72.6221 0.103994 75.4381 0.103994C78.3181 0.103994 80.5581 0.807995 82.1581 2.216C83.7581 3.56 84.5581 5.48 84.5581 7.976C84.5581 10.344 83.7261 12.264 82.0621 13.736C80.4621 15.208 78.2541 15.944 75.4381 15.944ZM97.6464 77V5.96H113.006V77H97.6464ZM157.331 78.056C155.027 78.056 152.819 77.736 150.707 77.096C148.595 76.456 146.675 75.592 144.947 74.504C143.283 73.416 141.875 72.168 140.723 70.76C139.635 69.288 138.899 67.784 138.515 66.248L141.875 65.096L141.011 76.904H126.707V5.96H142.163V38.216L138.995 37.064C139.379 35.4 140.115 33.864 141.203 32.456C142.291 30.984 143.667 29.704 145.331 28.616C146.995 27.464 148.819 26.568 150.803 25.928C152.787 25.288 154.835 24.968 156.947 24.968C161.363 24.968 165.267 26.12 168.659 28.424C172.115 30.664 174.835 33.8 176.819 37.832C178.803 41.8 179.795 46.344 179.795 51.464C179.795 56.648 178.803 61.256 176.819 65.288C174.899 69.256 172.243 72.392 168.851 74.696C165.459 76.936 161.619 78.056 157.331 78.056ZM153.299 65.096C155.603 65.096 157.619 64.52 159.347 63.368C161.075 62.216 162.387 60.648 163.283 58.664C164.243 56.616 164.723 54.216 164.723 51.464C164.723 48.776 164.243 46.408 163.283 44.36C162.387 42.312 161.075 40.744 159.347 39.656C157.619 38.568 155.603 38.024 153.299 38.024C150.931 38.024 148.883 38.568 147.155 39.656C145.427 40.744 144.083 42.312 143.123 44.36C142.163 46.408 141.683 48.776 141.683 51.464C141.683 54.216 142.163 56.616 143.123 58.664C144.083 60.648 145.427 62.216 147.155 63.368C148.883 64.52 150.931 65.096 153.299 65.096ZM208.71 77.864C204.422 77.864 200.582 76.744 197.19 74.504C193.862 72.2 191.206 69.064 189.222 65.096C187.238 61.064 186.246 56.52 186.246 51.464C186.246 46.28 187.238 41.704 189.222 37.736C191.206 33.768 193.926 30.664 197.382 28.424C200.838 26.12 204.774 24.968 209.19 24.968C211.622 24.968 213.83 25.32 215.814 26.024C217.862 26.728 219.654 27.72 221.19 29C222.726 30.216 224.038 31.656 225.126 33.32C226.214 34.92 227.014 36.648 227.526 38.504L224.358 38.12V26.024H239.622V77H224.07V64.712L227.526 64.616C227.014 66.408 226.182 68.104 225.03 69.704C223.878 71.304 222.47 72.712 220.806 73.928C219.142 75.144 217.286 76.104 215.238 76.808C213.19 77.512 211.014 77.864 208.71 77.864ZM212.934 64.904C215.302 64.904 217.35 64.36 219.078 63.272C220.806 62.184 222.15 60.648 223.11 58.664C224.07 56.616 224.55 54.216 224.55 51.464C224.55 48.712 224.07 46.344 223.11 44.36C222.15 42.312 220.806 40.744 219.078 39.656C217.35 38.504 215.302 37.928 212.934 37.928C210.63 37.928 208.614 38.504 206.886 39.656C205.222 40.744 203.91 42.312 202.95 44.36C201.99 46.344 201.51 48.712 201.51 51.464C201.51 54.216 201.99 56.616 202.95 58.664C203.91 60.648 205.222 62.184 206.886 63.272C208.614 64.36 210.63 64.904 212.934 64.904ZM276.503 99.08C272.343 99.08 268.183 98.472 264.023 97.256C259.927 96.04 256.599 94.472 254.039 92.552L259.415 81.8C260.759 82.696 262.231 83.464 263.831 84.104C265.495 84.808 267.223 85.352 269.015 85.736C270.807 86.12 272.631 86.312 274.487 86.312C277.751 86.312 280.407 85.832 282.455 84.872C284.503 83.912 286.039 82.44 287.063 80.456C288.087 78.536 288.599 76.104 288.599 73.16V64.616L291.575 65.096C291.127 67.208 290.007 69.128 288.215 70.856C286.487 72.584 284.343 73.992 281.783 75.08C279.223 76.104 276.503 76.616 273.623 76.616C269.015 76.616 264.887 75.56 261.239 73.448C257.655 71.272 254.807 68.296 252.695 64.52C250.647 60.68 249.623 56.264 249.623 51.272C249.623 46.152 250.647 41.64 252.695 37.736C254.743 33.768 257.559 30.664 261.143 28.424C264.727 26.12 268.759 24.968 273.239 24.968C275.159 24.968 276.983 25.192 278.711 25.64C280.503 26.088 282.135 26.696 283.607 27.464C285.143 28.168 286.487 29.032 287.639 30.056C288.855 31.016 289.815 32.072 290.519 33.224C291.287 34.376 291.799 35.56 292.055 36.776L288.887 37.544L289.463 26.024H304.055V72.872C304.055 77.032 303.415 80.712 302.135 83.912C300.919 87.176 299.095 89.928 296.663 92.168C294.295 94.472 291.415 96.2 288.023 97.352C284.631 98.504 280.791 99.08 276.503 99.08ZM276.887 64.712C279.383 64.712 281.527 64.168 283.319 63.08C285.175 61.928 286.583 60.36 287.543 58.376C288.567 56.392 289.079 54.056 289.079 51.368C289.079 48.68 288.567 46.344 287.543 44.36C286.583 42.312 285.175 40.744 283.319 39.656C281.527 38.504 279.383 37.928 276.887 37.928C274.455 37.928 272.343 38.504 270.551 39.656C268.759 40.744 267.351 42.312 266.327 44.36C265.367 46.344 264.887 48.68 264.887 51.368C264.887 54.056 265.367 56.392 266.327 58.376C267.351 60.36 268.759 61.928 270.551 63.08C272.343 64.168 274.455 64.712 276.887 64.712ZM341.682 77.96C336.05 77.96 331.154 76.84 326.994 74.6C322.834 72.296 319.602 69.192 317.298 65.288C314.994 61.32 313.842 56.808 313.842 51.752C313.842 47.848 314.482 44.264 315.762 41C317.042 37.736 318.834 34.92 321.138 32.552C323.442 30.12 326.162 28.264 329.298 26.984C332.498 25.64 335.986 24.968 339.762 24.968C343.346 24.968 346.61 25.608 349.554 26.888C352.562 28.168 355.154 29.96 357.33 32.264C359.506 34.568 361.17 37.288 362.322 40.424C363.474 43.56 363.986 46.984 363.858 50.696L363.762 54.824H323.154L320.946 46.184H351.282L349.65 48.008V46.088C349.522 44.488 349.01 43.08 348.114 41.864C347.282 40.584 346.162 39.592 344.754 38.888C343.346 38.184 341.746 37.832 339.954 37.832C337.458 37.832 335.314 38.344 333.522 39.368C331.794 40.328 330.482 41.768 329.586 43.688C328.69 45.544 328.242 47.848 328.242 50.6C328.242 53.416 328.818 55.88 329.97 57.992C331.186 60.04 332.914 61.64 335.154 62.792C337.458 63.944 340.178 64.52 343.314 64.52C345.49 64.52 347.41 64.2 349.074 63.56C350.802 62.92 352.658 61.832 354.642 60.296L361.842 70.472C359.858 72.2 357.746 73.608 355.506 74.696C353.266 75.784 350.962 76.584 348.594 77.096C346.29 77.672 343.986 77.96 341.682 77.96Z" fill="url(#paint0_linear_133_4)"/>
<defs>
<linearGradient id="paint0_linear_133_4" x1="182" y1="-19" x2="182" y2="221" gradientUnits="userSpaceOnUse">
<stop stop-color="#C90235"/>
<stop offset="0.46875" stop-color="#9608F7"/>
<stop offset="1" stop-color="#CB7563"/>
</linearGradient>
</defs>
</svg>
