<svg width="591" height="124" viewBox="0 0 591 124" fill="none" xmlns="http://www.w3.org/2000/svg">
<rect y="0.602295" width="590.99" height="123.3" rx="24" fill="white"/>
<path d="M22.7605 97V29.8H69.6085V43.72H38.6005V83.08H70.5685V97H22.7605ZM30.4405 69.448V56.2H65.2885V69.448H30.4405ZM124.092 97L103.26 66.856L76.5715 29.8H96.4435L116.796 59.56L143.964 97H124.092ZM76.0915 97L101.724 60.424L114.876 68.008L95.0035 97H76.0915ZM118.332 65.8L105.276 58.504L124.092 29.8H143.004L118.332 65.8ZM152.323 97V29.8H199.171V43.72H168.163V83.08H200.131V97H152.323ZM160.003 69.448V56.2H194.851V69.448H160.003ZM214.198 97V29.8H244.438C248.726 29.8 252.598 30.728 256.054 32.584C259.574 34.44 262.326 37 264.31 40.264C266.294 43.464 267.286 47.112 267.286 51.208C267.286 55.432 266.294 59.24 264.31 62.632C262.326 65.96 259.606 68.584 256.15 70.504C252.694 72.424 248.79 73.384 244.438 73.384H229.75V97H214.198ZM251.446 97L234.358 66.664L251.062 64.264L270.07 97H251.446ZM229.75 60.904H242.998C244.662 60.904 246.102 60.552 247.318 59.848C248.598 59.08 249.558 58.024 250.198 56.68C250.902 55.336 251.254 53.8 251.254 52.072C251.254 50.344 250.87 48.84 250.102 47.56C249.334 46.216 248.214 45.192 246.742 44.488C245.334 43.784 243.606 43.432 241.558 43.432H229.75V60.904ZM311.195 97.96C306.139 97.96 301.467 97.128 297.179 95.464C292.955 93.736 289.275 91.336 286.139 88.264C283.003 85.128 280.571 81.448 278.843 77.224C277.179 72.936 276.347 68.232 276.347 63.112C276.347 58.12 277.243 53.512 279.035 49.288C280.827 45.064 283.291 41.416 286.427 38.344C289.627 35.208 293.371 32.776 297.659 31.048C302.011 29.32 306.747 28.456 311.867 28.456C315.067 28.456 318.203 28.872 321.275 29.704C324.347 30.536 327.195 31.784 329.819 33.448C332.507 35.048 334.811 36.968 336.731 39.208L326.747 50.632C325.403 49.224 323.963 48.008 322.427 46.984C320.955 45.896 319.323 45.064 317.531 44.488C315.739 43.912 313.819 43.624 311.771 43.624C309.211 43.624 306.779 44.104 304.475 45.064C302.235 45.96 300.251 47.272 298.523 49C296.859 50.664 295.547 52.712 294.587 55.144C293.627 57.576 293.147 60.296 293.147 63.304C293.147 66.248 293.627 68.936 294.587 71.368C295.547 73.736 296.891 75.784 298.619 77.512C300.347 79.24 302.427 80.552 304.859 81.448C307.355 82.344 310.107 82.792 313.115 82.792C315.163 82.792 317.115 82.504 318.971 81.928C320.827 81.352 322.523 80.584 324.059 79.624C325.659 78.6 327.067 77.448 328.283 76.168L336.155 88.648C334.555 90.44 332.411 92.04 329.723 93.448C327.099 94.856 324.155 95.976 320.891 96.808C317.691 97.576 314.459 97.96 311.195 97.96ZM345.979 97V83.272H357.307V43.528H345.979V29.8H385.051V43.528H373.627V83.272H385.051V97H345.979ZM422.845 97.96C418.429 97.96 414.429 97.448 410.845 96.424C407.325 95.336 404.189 93.8 401.437 91.816C398.685 89.768 396.221 87.368 394.045 84.616L403.933 73.384C407.133 77.672 410.333 80.552 413.533 82.024C416.797 83.496 420.157 84.232 423.613 84.232C425.341 84.232 426.909 84.008 428.317 83.56C429.725 83.112 430.813 82.472 431.581 81.64C432.349 80.744 432.733 79.656 432.733 78.376C432.733 77.416 432.477 76.552 431.965 75.784C431.517 75.016 430.877 74.344 430.045 73.768C429.213 73.192 428.221 72.68 427.069 72.232C425.917 71.72 424.701 71.304 423.421 70.984C422.141 70.6 420.829 70.28 419.485 70.024C415.773 69.192 412.541 68.168 409.789 66.952C407.037 65.736 404.733 64.264 402.877 62.536C401.085 60.744 399.741 58.728 398.845 56.488C397.949 54.184 397.501 51.624 397.501 48.808C397.501 45.8 398.173 43.048 399.517 40.552C400.925 37.992 402.781 35.816 405.085 34.024C407.453 32.168 410.173 30.76 413.245 29.8C416.317 28.776 419.517 28.264 422.845 28.264C427.261 28.264 431.037 28.744 434.173 29.704C437.373 30.6 440.093 31.912 442.333 33.64C444.637 35.368 446.589 37.448 448.189 39.88L438.109 49.576C436.765 47.912 435.293 46.536 433.693 45.448C432.157 44.36 430.493 43.528 428.701 42.952C426.973 42.376 425.181 42.088 423.325 42.088C421.405 42.088 419.741 42.344 418.333 42.856C416.989 43.304 415.933 43.976 415.165 44.872C414.397 45.704 414.013 46.728 414.013 47.944C414.013 49.032 414.333 49.96 414.973 50.728C415.613 51.496 416.477 52.2 417.565 52.84C418.653 53.416 419.901 53.928 421.309 54.376C422.717 54.76 424.189 55.08 425.725 55.336C429.245 56.04 432.413 56.968 435.229 58.12C438.109 59.272 440.573 60.68 442.621 62.344C444.733 64.008 446.333 65.992 447.421 68.296C448.573 70.536 449.149 73.16 449.149 76.168C449.149 80.84 447.997 84.808 445.693 88.072C443.453 91.272 440.349 93.736 436.381 95.464C432.477 97.128 427.965 97.96 422.845 97.96ZM461.417 97V29.8H508.265V43.72H477.257V83.08H509.225V97H461.417ZM469.097 69.448V56.2H503.945V69.448H469.097ZM545.564 97.96C541.148 97.96 537.148 97.448 533.564 96.424C530.044 95.336 526.908 93.8 524.156 91.816C521.404 89.768 518.94 87.368 516.764 84.616L526.652 73.384C529.852 77.672 533.052 80.552 536.252 82.024C539.516 83.496 542.876 84.232 546.332 84.232C548.06 84.232 549.628 84.008 551.036 83.56C552.444 83.112 553.532 82.472 554.3 81.64C555.068 80.744 555.452 79.656 555.452 78.376C555.452 77.416 555.196 76.552 554.684 75.784C554.236 75.016 553.596 74.344 552.764 73.768C551.932 73.192 550.94 72.68 549.788 72.232C548.636 71.72 547.42 71.304 546.14 70.984C544.86 70.6 543.548 70.28 542.204 70.024C538.492 69.192 535.26 68.168 532.508 66.952C529.756 65.736 527.452 64.264 525.596 62.536C523.804 60.744 522.46 58.728 521.564 56.488C520.668 54.184 520.22 51.624 520.22 48.808C520.22 45.8 520.892 43.048 522.236 40.552C523.644 37.992 525.5 35.816 527.804 34.024C530.172 32.168 532.892 30.76 535.964 29.8C539.036 28.776 542.236 28.264 545.564 28.264C549.98 28.264 553.756 28.744 556.892 29.704C560.092 30.6 562.812 31.912 565.052 33.64C567.356 35.368 569.308 37.448 570.908 39.88L560.828 49.576C559.484 47.912 558.012 46.536 556.412 45.448C554.876 44.36 553.212 43.528 551.42 42.952C549.692 42.376 547.9 42.088 546.044 42.088C544.124 42.088 542.46 42.344 541.052 42.856C539.708 43.304 538.652 43.976 537.884 44.872C537.116 45.704 536.732 46.728 536.732 47.944C536.732 49.032 537.052 49.96 537.692 50.728C538.332 51.496 539.196 52.2 540.284 52.84C541.372 53.416 542.62 53.928 544.028 54.376C545.436 54.76 546.908 55.08 548.444 55.336C551.964 56.04 555.132 56.968 557.948 58.12C560.828 59.272 563.292 60.68 565.34 62.344C567.452 64.008 569.052 65.992 570.14 68.296C571.292 70.536 571.868 73.16 571.868 76.168C571.868 80.84 570.716 84.808 568.412 88.072C566.172 91.272 563.068 93.736 559.1 95.464C555.196 97.128 550.684 97.96 545.564 97.96Z" fill="url(#paint0_linear_124_12)"/>
<defs>
<linearGradient id="paint0_linear_124_12" x1="295" y1="1" x2="295" y2="121" gradientUnits="userSpaceOnUse">
<stop stop-color="#C90235"/>
<stop offset="0.46875" stop-color="#9608F7"/>
<stop offset="1" stop-color="#CB7563"/>
</linearGradient>
</defs>
</svg>
