<svg width="591" height="124" viewBox="0 0 591 124" fill="none" xmlns="http://www.w3.org/2000/svg">
<rect y="0.302246" width="590.99" height="123.3" rx="24" fill="white"/>
<path d="M135.901 97.3022V30.1022H150.493L174.973 69.9422L164.509 69.8462L189.277 30.1022H203.293V97.3022H187.453V76.3742C187.453 70.6142 187.581 65.4302 187.837 60.8222C188.157 56.2142 188.669 51.6382 189.373 47.0942L191.197 52.0862L172.573 80.9822H166.237L147.997 52.2782L149.821 47.0942C150.525 51.3822 151.005 55.7982 151.261 60.3422C151.581 64.8222 151.741 70.1662 151.741 76.3742V97.3022H135.901ZM248.502 97.8782C242.934 97.8782 237.974 96.7582 233.622 94.5182C229.27 92.2142 225.846 89.0782 223.35 85.1102C220.918 81.1422 219.702 76.5982 219.702 71.4782V30.1022H236.214V70.6142C236.214 73.0462 236.758 75.2542 237.846 77.2382C238.934 79.1582 240.406 80.6942 242.262 81.8462C244.118 82.9342 246.198 83.4782 248.502 83.4782C250.934 83.4782 253.078 82.9342 254.934 81.8462C256.854 80.6942 258.39 79.1582 259.542 77.2382C260.694 75.2542 261.27 73.0462 261.27 70.6142V30.1022H277.206V71.4782C277.206 76.5982 275.958 81.1422 273.462 85.1102C271.03 89.0782 267.638 92.2142 263.286 94.5182C258.934 96.7582 254.006 97.8782 248.502 97.8782ZM314.923 98.2622C310.507 98.2622 306.507 97.7502 302.923 96.7262C299.403 95.6382 296.267 94.1022 293.515 92.1182C290.763 90.0702 288.299 87.6702 286.123 84.9182L296.011 73.6862C299.211 77.9742 302.411 80.8542 305.611 82.3262C308.875 83.7982 312.235 84.5342 315.691 84.5342C317.419 84.5342 318.987 84.3102 320.395 83.8622C321.803 83.4142 322.891 82.7742 323.659 81.9422C324.427 81.0462 324.811 79.9582 324.811 78.6782C324.811 77.7182 324.555 76.8542 324.043 76.0862C323.595 75.3182 322.955 74.6462 322.123 74.0702C321.291 73.4942 320.299 72.9822 319.147 72.5342C317.995 72.0222 316.779 71.6062 315.499 71.2862C314.219 70.9022 312.907 70.5822 311.563 70.3262C307.851 69.4942 304.619 68.4702 301.867 67.2542C299.115 66.0382 296.811 64.5662 294.955 62.8382C293.163 61.0462 291.819 59.0302 290.923 56.7902C290.027 54.4862 289.579 51.9262 289.579 49.1102C289.579 46.1022 290.251 43.3502 291.595 40.8542C293.003 38.2942 294.859 36.1182 297.163 34.3262C299.531 32.4702 302.251 31.0622 305.323 30.1022C308.395 29.0782 311.595 28.5662 314.923 28.5662C319.339 28.5662 323.115 29.0462 326.251 30.0062C329.451 30.9022 332.171 32.2142 334.411 33.9422C336.715 35.6702 338.667 37.7502 340.267 40.1822L330.187 49.8782C328.843 48.2142 327.371 46.8382 325.771 45.7502C324.235 44.6622 322.571 43.8302 320.779 43.2542C319.051 42.6782 317.259 42.3902 315.403 42.3902C313.483 42.3902 311.819 42.6462 310.411 43.1582C309.067 43.6062 308.011 44.2782 307.243 45.1742C306.475 46.0062 306.091 47.0302 306.091 48.2462C306.091 49.3342 306.411 50.2622 307.051 51.0302C307.691 51.7982 308.555 52.5022 309.643 53.1422C310.731 53.7182 311.979 54.2302 313.387 54.6782C314.795 55.0622 316.267 55.3822 317.803 55.6382C321.323 56.3422 324.491 57.2702 327.307 58.4222C330.187 59.5742 332.651 60.9822 334.699 62.6462C336.811 64.3102 338.411 66.2942 339.499 68.5982C340.651 70.8382 341.227 73.4622 341.227 76.4702C341.227 81.1422 340.075 85.1102 337.771 88.3742C335.531 91.5742 332.427 94.0382 328.459 95.7662C324.555 97.4302 320.043 98.2622 314.923 98.2622ZM352.151 97.3022V83.5742H363.479V43.8302H352.151V30.1022H391.223V43.8302H379.799V83.5742H391.223V97.3022H352.151ZM435.867 98.2622C430.811 98.2622 426.139 97.4302 421.851 95.7662C417.627 94.0382 413.947 91.6382 410.811 88.5662C407.675 85.4302 405.243 81.7502 403.515 77.5262C401.851 73.2382 401.019 68.5342 401.019 63.4142C401.019 58.4222 401.915 53.8142 403.707 49.5902C405.499 45.3662 407.963 41.7182 411.099 38.6462C414.299 35.5102 418.043 33.0782 422.331 31.3502C426.683 29.6222 431.419 28.7582 436.539 28.7582C439.739 28.7582 442.875 29.1742 445.947 30.0062C449.019 30.8382 451.867 32.0862 454.491 33.7502C457.179 35.3502 459.483 37.2702 461.403 39.5102L451.419 50.9342C450.075 49.5262 448.635 48.3102 447.099 47.2862C445.627 46.1982 443.995 45.3662 442.203 44.7902C440.411 44.2142 438.491 43.9262 436.443 43.9262C433.883 43.9262 431.451 44.4062 429.147 45.3662C426.907 46.2622 424.923 47.5742 423.195 49.3022C421.531 50.9662 420.219 53.0142 419.259 55.4462C418.299 57.8782 417.819 60.5982 417.819 63.6062C417.819 66.5502 418.299 69.2382 419.259 71.6702C420.219 74.0382 421.563 76.0862 423.291 77.8142C425.019 79.5422 427.099 80.8542 429.531 81.7502C432.027 82.6462 434.779 83.0942 437.787 83.0942C439.835 83.0942 441.787 82.8062 443.643 82.2302C445.499 81.6542 447.195 80.8862 448.731 79.9262C450.331 78.9022 451.739 77.7502 452.955 76.4702L460.827 88.9502C459.227 90.7422 457.083 92.3422 454.395 93.7502C451.771 95.1582 448.827 96.2782 445.563 97.1102C442.363 97.8782 439.131 98.2622 435.867 98.2622Z" fill="url(#paint0_linear_124_9)"/>
<defs>
<linearGradient id="paint0_linear_124_9" x1="295.5" y1="1.30225" x2="295.5" y2="121.302" gradientUnits="userSpaceOnUse">
<stop stop-color="#C90235"/>
<stop offset="0.46875" stop-color="#9608F7"/>
<stop offset="1" stop-color="#CB7563"/>
</linearGradient>
</defs>
</svg>
