<svg width="591" height="124" viewBox="0 0 591 124" fill="none" xmlns="http://www.w3.org/2000/svg">
<rect width="591" height="123.302" rx="24" fill="white"/>
<path d="M169.189 97.96C164.773 97.96 160.773 97.448 157.189 96.424C153.669 95.336 150.533 93.8 147.781 91.816C145.029 89.768 142.565 87.368 140.389 84.616L150.277 73.384C153.477 77.672 156.677 80.552 159.877 82.024C163.141 83.496 166.501 84.232 169.957 84.232C171.685 84.232 173.253 84.008 174.661 83.56C176.069 83.112 177.157 82.472 177.925 81.64C178.693 80.744 179.077 79.656 179.077 78.376C179.077 77.416 178.821 76.552 178.309 75.784C177.861 75.016 177.221 74.344 176.389 73.768C175.557 73.192 174.565 72.68 173.413 72.232C172.261 71.72 171.045 71.304 169.765 70.984C168.485 70.6 167.173 70.28 165.829 70.024C162.117 69.192 158.885 68.168 156.133 66.952C153.381 65.736 151.077 64.264 149.221 62.536C147.429 60.744 146.085 58.728 145.189 56.488C144.293 54.184 143.845 51.624 143.845 48.808C143.845 45.8 144.517 43.048 145.861 40.552C147.269 37.992 149.125 35.816 151.429 34.024C153.797 32.168 156.517 30.76 159.589 29.8C162.661 28.776 165.861 28.264 169.189 28.264C173.605 28.264 177.381 28.744 180.517 29.704C183.717 30.6 186.437 31.912 188.677 33.64C190.981 35.368 192.933 37.448 194.533 39.88L184.453 49.576C183.109 47.912 181.637 46.536 180.037 45.448C178.501 44.36 176.837 43.528 175.045 42.952C173.317 42.376 171.525 42.088 169.669 42.088C167.749 42.088 166.085 42.344 164.677 42.856C163.333 43.304 162.277 43.976 161.509 44.872C160.741 45.704 160.357 46.728 160.357 47.944C160.357 49.032 160.677 49.96 161.317 50.728C161.957 51.496 162.821 52.2 163.909 52.84C164.997 53.416 166.245 53.928 167.653 54.376C169.061 54.76 170.533 55.08 172.069 55.336C175.589 56.04 178.757 56.968 181.573 58.12C184.453 59.272 186.917 60.68 188.965 62.344C191.077 64.008 192.677 65.992 193.765 68.296C194.917 70.536 195.493 73.16 195.493 76.168C195.493 80.84 194.341 84.808 192.037 88.072C189.797 91.272 186.693 93.736 182.725 95.464C178.821 97.128 174.309 97.96 169.189 97.96ZM222.353 97V44.2H202.385V29.8H259.121V44.2H238.673V97H222.353ZM257.341 97L283.934 29.8H297.758L324.158 97H307.646L294.974 62.92C294.462 61.576 293.95 60.136 293.438 58.6C292.926 57.064 292.414 55.496 291.902 53.896C291.39 52.232 290.878 50.632 290.366 49.096C289.918 47.496 289.534 46.024 289.214 44.68L292.094 44.584C291.71 46.184 291.262 47.752 290.75 49.288C290.302 50.824 289.822 52.36 289.31 53.896C288.862 55.368 288.35 56.872 287.774 58.408C287.198 59.88 286.654 61.416 286.142 63.016L273.47 97H257.341ZM270.014 84.136L275.102 71.848H306.014L311.006 84.136H270.014ZM332.542 97V29.8H362.782C367.07 29.8 370.942 30.728 374.398 32.584C377.918 34.44 380.67 37 382.654 40.264C384.638 43.464 385.63 47.112 385.63 51.208C385.63 55.432 384.638 59.24 382.654 62.632C380.67 65.96 377.95 68.584 374.494 70.504C371.038 72.424 367.134 73.384 362.782 73.384H348.094V97H332.542ZM369.79 97L352.702 66.664L369.406 64.264L388.414 97H369.79ZM348.094 60.904H361.342C363.006 60.904 364.446 60.552 365.662 59.848C366.942 59.08 367.902 58.024 368.542 56.68C369.246 55.336 369.598 53.8 369.598 52.072C369.598 50.344 369.214 48.84 368.446 47.56C367.678 46.216 366.558 45.192 365.086 44.488C363.678 43.784 361.95 43.432 359.902 43.432H348.094V60.904ZM412.665 97V44.2H392.697V29.8H449.433V44.2H428.985V97H412.665Z" fill="url(#paint0_linear_124_8)"/>
<defs>
<linearGradient id="paint0_linear_124_8" x1="295.5" y1="1" x2="295.5" y2="121" gradientUnits="userSpaceOnUse">
<stop stop-color="#C90235"/>
<stop offset="0.46875" stop-color="#9608F7"/>
<stop offset="1" stop-color="#CB7563"/>
</linearGradient>
</defs>
</svg>
